<svg xmlns="http://www.w3.org/2000/svg" viewBox="0 0 800 400" width="800" height="400">
  <defs>
    <!-- Background gradient -->
    <radialGradient id="bgGrad" cx="50%" cy="45%" r="65%">
      <stop offset="0%" stop-color="#0d1b2a"/>
      <stop offset="100%" stop-color="#020810"/>
    </radialGradient>

    <!-- Dugong body gradient - animated color shift -->
    <linearGradient id="bodyGrad" x1="0%" y1="0%" x2="100%" y2="100%">
      <stop offset="0%" stop-color="#06b6d4">
        <animate attributeName="stop-color" values="#06b6d4;#14b8a6;#22d3ee;#06b6d4" dur="5s" repeatCount="indefinite"/>
      </stop>
      <stop offset="50%" stop-color="#0891b2">
        <animate attributeName="stop-color" values="#0891b2;#0d9488;#06b6d4;#0891b2" dur="5s" repeatCount="indefinite"/>
      </stop>
      <stop offset="100%" stop-color="#164e63">
        <animate attributeName="stop-color" values="#164e63;#115e59;#0e7490;#164e63" dur="5s" repeatCount="indefinite"/>
      </stop>
    </linearGradient>

    <!-- Glow filter -->
    <filter id="glow" x="-40%" y="-40%" width="180%" height="180%">
      <feGaussianBlur stdDeviation="3" result="blur"/>
      <feComposite in="SourceGraphic" in2="blur" operator="over"/>
    </filter>

    <!-- Outer glow for dugong body -->
    <filter id="outerGlow" x="-30%" y="-30%" width="160%" height="160%">
      <feGaussianBlur stdDeviation="6" result="blur"/>
      <feFlood flood-color="#06b6d4" flood-opacity="0.5" result="color"/>
      <feComposite in="color" in2="blur" operator="in" result="glowLayer"/>
      <feMerge>
        <feMergeNode in="glowLayer"/>
        <feMergeNode in="SourceGraphic"/>
      </feMerge>
    </filter>

    <!-- Text glow -->
    <filter id="textGlow" x="-20%" y="-20%" width="140%" height="140%">
      <feGaussianBlur stdDeviation="5" result="blur"/>
      <feFlood flood-color="#22d3ee" flood-opacity="0.7" result="color"/>
      <feComposite in="color" in2="blur" operator="in" result="glowLayer"/>
      <feMerge>
        <feMergeNode in="glowLayer"/>
        <feMergeNode in="SourceGraphic"/>
      </feMerge>
    </filter>

    <!-- Shimmer sweep -->
    <linearGradient id="shimmer" x1="0" y1="0" x2="1" y2="0">
      <stop offset="0%" stop-color="white" stop-opacity="0"/>
      <stop offset="44%" stop-color="white" stop-opacity="0"/>
      <stop offset="50%" stop-color="white" stop-opacity="0.12"/>
      <stop offset="56%" stop-color="white" stop-opacity="0"/>
      <stop offset="100%" stop-color="white" stop-opacity="0"/>
      <animateTransform attributeName="gradientTransform" type="translate" from="-1.5 0" to="2.5 0" dur="4s" repeatCount="indefinite"/>
    </linearGradient>

    <!-- Scan line gradient -->
    <linearGradient id="scanGrad" x1="0" y1="0" x2="0" y2="1">
      <stop offset="0%" stop-color="#22d3ee" stop-opacity="0"/>
      <stop offset="40%" stop-color="#22d3ee" stop-opacity="0"/>
      <stop offset="50%" stop-color="#22d3ee" stop-opacity="0.25"/>
      <stop offset="60%" stop-color="#22d3ee" stop-opacity="0"/>
      <stop offset="100%" stop-color="#22d3ee" stop-opacity="0"/>
    </linearGradient>

    <!-- Orbit path for particles -->
    <path id="orbit" d="M295,160 a105,55 0 1,1 210,0 a105,55 0 1,1 -210,0" fill="none"/>

    <!-- Grid pattern -->
    <pattern id="grid" width="40" height="40" patternUnits="userSpaceOnUse">
      <path d="M 40 0 L 0 0 0 40" fill="none" stroke="#06b6d4" stroke-width="0.3" opacity="0.12"/>
    </pattern>
  </defs>

  <!-- Background -->
  <rect width="800" height="400" fill="url(#bgGrad)"/>

  <!-- Grid -->
  <rect width="800" height="400" fill="url(#grid)" opacity="0.5"/>

  <!-- Subtle radial pulse behind dugong -->
  <circle cx="400" cy="155" r="120" fill="#06b6d4" opacity="0.03">
    <animate attributeName="r" values="100;130;100" dur="4s" repeatCount="indefinite"/>
    <animate attributeName="opacity" values="0.02;0.05;0.02" dur="4s" repeatCount="indefinite"/>
  </circle>

  <!-- Rotating dashed ring -->
  <ellipse cx="400" cy="160" rx="175" ry="85" fill="none" stroke="#22d3ee" stroke-width="0.7" stroke-dasharray="5 12" opacity="0.15">
    <animateTransform attributeName="transform" type="rotate" from="0 400 160" to="360 400 160" dur="40s" repeatCount="indefinite"/>
  </ellipse>
  <ellipse cx="400" cy="160" rx="160" ry="78" fill="none" stroke="#06b6d4" stroke-width="0.5" stroke-dasharray="3 9" opacity="0.1">
    <animateTransform attributeName="transform" type="rotate" from="360 400 160" to="0 400 160" dur="25s" repeatCount="indefinite"/>
  </ellipse>

  <!-- Orbiting particles -->
  <circle r="2.5" fill="#22d3ee" filter="url(#glow)">
    <animateMotion dur="10s" repeatCount="indefinite"><mpath href="#orbit"/></animateMotion>
    <animate attributeName="opacity" values="0.3;1;0.3" dur="2.5s" repeatCount="indefinite"/>
  </circle>
  <circle r="1.8" fill="#14b8a6" filter="url(#glow)">
    <animateMotion dur="10s" begin="-5s" repeatCount="indefinite"><mpath href="#orbit"/></animateMotion>
    <animate attributeName="opacity" values="0.2;0.8;0.2" dur="2s" repeatCount="indefinite"/>
  </circle>
  <circle r="2" fill="#67e8f9" filter="url(#glow)">
    <animateMotion dur="14s" begin="-3s" repeatCount="indefinite"><mpath href="#orbit"/></animateMotion>
    <animate attributeName="opacity" values="0.3;0.9;0.3" dur="3s" repeatCount="indefinite"/>
  </circle>

  <!-- ============ DUGONG CHARACTER ============ -->
  <g transform="translate(400,152) scale(0.95)" filter="url(#outerGlow)">

    <!-- Main body - chubby rounded dugong shape -->
    <path d="
      M 5,-90
      C 40,-108  85,-112  110,-95
      C 128,-102  150,-95  158,-78
      C 172,-80  185,-68  185,-52
      C 196,-44  200,-28  195,-12
      C 202, 0   198, 18  188, 28
      C 192, 42  182, 55  168, 62
      C 160, 78  142, 88  120, 88
      C 105, 98   80,100   58, 95
      C 35,105    8,105  -15,98
      C -38,108  -65,105  -85,95
      C -108,102 -128, 95 -140, 82
      C -158, 82 -172, 72 -175, 55
      C -190, 48 -198, 35 -195, 18
      C -205, 8  -208,-8  -200,-22
      C -208,-35 -205,-50 -195,-60
      C -200,-75 -192,-88 -178,-95
      C -175,-110 -158,-115 -138,-110
      C -122,-122 -102,-120 -88,-105
      C -65,-115  -35,-112   5,-90
      Z"
      fill="url(#bodyGrad)" stroke="#22d3ee" stroke-width="1.2" opacity="0.92"/>

    <!-- Belly highlight -->
    <ellipse cx="-5" cy="18" rx="85" ry="40" fill="#67e8f9" opacity="0.06">
      <animate attributeName="opacity" values="0.04;0.09;0.04" dur="3.5s" repeatCount="indefinite"/>
    </ellipse>

    <!-- Eye - right (facing viewer) -->
    <g>
      <circle cx="90" cy="-48" r="16" fill="#061018" stroke="#22d3ee" stroke-width="1.5"/>
      <circle cx="94" cy="-52" r="6" fill="#22d3ee">
        <animate attributeName="opacity" values="0.8;1;0.8" dur="2.5s" repeatCount="indefinite"/>
        <animate attributeName="r" values="6;6.5;6" dur="2.5s" repeatCount="indefinite"/>
      </circle>
      <circle cx="97" cy="-56" r="2.5" fill="#cffafe" opacity="0.85"/>
      <!-- Blink -->
      <ellipse cx="90" cy="-48" rx="16" ry="0" fill="#0d1b2a" opacity="0">
        <animate attributeName="ry" values="0;0;0;16;0;0;0;0;0;0;0;0;0;0;0;0;0;0;0;0" dur="5s" repeatCount="indefinite"/>
        <animate attributeName="opacity" values="0;0;0;1;0;0;0;0;0;0;0;0;0;0;0;0;0;0;0;0" dur="5s" repeatCount="indefinite"/>
      </ellipse>
    </g>

    <!-- Snout bump -->
    <path d="M 135,-42 C 158,-32 170,-15 160,-5 C 152,5 135,-2 128,-15"
          fill="url(#bodyGrad)" stroke="#22d3ee" stroke-width="0.8" opacity="0.7"/>

    <!-- Nostril -->
    <ellipse cx="155" cy="-25" rx="4" ry="2.5" fill="#061018" opacity="0.5"/>

    <!-- Smile -->
    <path d="M 115,-18 Q 130,-8 140,-18" fill="none" stroke="#22d3ee" stroke-width="1.2" stroke-linecap="round" opacity="0.5"/>

    <!-- Left flipper -->
    <path d="M -55,52 C -90,68 -125,55 -130,32 C -122,50 -95,60 -60,52 Z"
          fill="#0891b2" stroke="#22d3ee" stroke-width="0.7" opacity="0.55"/>

    <!-- Right flipper -->
    <path d="M 65,55 C 95,70 125,58 128,38 C 120,52 98,62 68,52 Z"
          fill="#0891b2" stroke="#22d3ee" stroke-width="0.7" opacity="0.45"/>

    <!-- Tail flukes -->
    <path d="M -148,-55 C -178,-78 -208,-65 -200,-42 C -205,-60 -185,-72 -158,-55"
          fill="#0891b2" stroke="#22d3ee" stroke-width="0.7" opacity="0.5"/>
    <path d="M -148,-55 C -178,-32 -208,-45 -200,-68 C -205,-50 -185,-38 -158,-55"
          fill="#0891b2" stroke="#22d3ee" stroke-width="0.7" opacity="0.5"/>

    <!-- Circuit/tech markings on body -->
    <g stroke="#22d3ee" stroke-width="0.5" fill="none" opacity="0.15">
      <path d="M -65,-55 L -42,-55 L -42,-35"/>
      <path d="M 40,32 L 62,32 L 62,52"/>
      <path d="M -100,-8 L -78,-8 L -78,12"/>
      <circle cx="-65" cy="-55" r="1.8" fill="#22d3ee"/>
      <circle cx="-42" cy="-35" r="1.8" fill="#22d3ee"/>
      <circle cx="40" cy="32" r="1.8" fill="#22d3ee"/>
      <circle cx="62" cy="52" r="1.8" fill="#22d3ee"/>
      <circle cx="-100" cy="-8" r="1.8" fill="#22d3ee"/>
      <circle cx="-78" cy="12" r="1.8" fill="#22d3ee"/>
    </g>

    <!-- Shimmer sweep across body -->
    <path d="
      M 5,-90
      C 40,-108  85,-112  110,-95
      C 128,-102  150,-95  158,-78
      C 172,-80  185,-68  185,-52
      C 196,-44  200,-28  195,-12
      C 202, 0   198, 18  188, 28
      C 192, 42  182, 55  168, 62
      C 160, 78  142, 88  120, 88
      C 105, 98   80,100   58, 95
      C 35,105    8,105  -15,98
      C -38,108  -65,105  -85,95
      C -108,102 -128, 95 -140, 82
      C -158, 82 -172, 72 -175, 55
      C -190, 48 -198, 35 -195, 18
      C -205, 8  -208,-8  -200,-22
      C -208,-35 -205,-50 -195,-60
      C -200,-75 -192,-88 -178,-95
      C -175,-110 -158,-115 -138,-110
      C -122,-122 -102,-120 -88,-105
      C -65,-115  -35,-112   5,-90
      Z"
      fill="url(#shimmer)"/>
  </g>

  <!-- Scan line sweeping over everything -->
  <rect x="180" y="0" width="440" height="400" fill="url(#scanGrad)" opacity="0.2">
    <animateTransform attributeName="transform" type="translate" from="0 -400" to="0 400" dur="5s" repeatCount="indefinite"/>
  </rect>

  <!-- Floating ambient particles -->
  <g fill="#22d3ee">
    <circle cx="110" cy="75" r="1.3" opacity="0">
      <animate attributeName="opacity" values="0;0.6;0" dur="4.2s" begin="0s" repeatCount="indefinite"/>
      <animate attributeName="cy" values="75;55" dur="4.2s" begin="0s" repeatCount="indefinite"/>
    </circle>
    <circle cx="690" cy="110" r="1" opacity="0">
      <animate attributeName="opacity" values="0;0.5;0" dur="3.3s" begin="1.2s" repeatCount="indefinite"/>
      <animate attributeName="cy" values="110;88" dur="3.3s" begin="1.2s" repeatCount="indefinite"/>
    </circle>
    <circle cx="140" cy="270" r="1.1" opacity="0">
      <animate attributeName="opacity" values="0;0.55;0" dur="5s" begin="0.6s" repeatCount="indefinite"/>
      <animate attributeName="cy" values="270;248" dur="5s" begin="0.6s" repeatCount="indefinite"/>
    </circle>
    <circle cx="660" cy="290" r="0.9" opacity="0">
      <animate attributeName="opacity" values="0;0.4;0" dur="3.8s" begin="2.2s" repeatCount="indefinite"/>
      <animate attributeName="cy" values="290;272" dur="3.8s" begin="2.2s" repeatCount="indefinite"/>
    </circle>
    <circle cx="95" cy="185" r="0.8" opacity="0">
      <animate attributeName="opacity" values="0;0.45;0" dur="4.8s" begin="1.8s" repeatCount="indefinite"/>
      <animate attributeName="cx" values="95;112" dur="4.8s" begin="1.8s" repeatCount="indefinite"/>
    </circle>
    <circle cx="705" cy="195" r="1.2" opacity="0">
      <animate attributeName="opacity" values="0;0.5;0" dur="4s" begin="0.9s" repeatCount="indefinite"/>
      <animate attributeName="cx" values="705;688" dur="4s" begin="0.9s" repeatCount="indefinite"/>
    </circle>
    <circle cx="320" cy="55" r="0.7" opacity="0">
      <animate attributeName="opacity" values="0;0.35;0" dur="3.5s" begin="2.8s" repeatCount="indefinite"/>
      <animate attributeName="cy" values="55;42" dur="3.5s" begin="2.8s" repeatCount="indefinite"/>
    </circle>
    <circle cx="480" cy="48" r="0.9" opacity="0">
      <animate attributeName="opacity" values="0;0.4;0" dur="4.5s" begin="0.3s" repeatCount="indefinite"/>
      <animate attributeName="cy" values="48;32" dur="4.5s" begin="0.3s" repeatCount="indefinite"/>
    </circle>
  </g>

  <!-- ============ TEXT ============ -->
  <g transform="translate(400, 330)">
    <!-- Glow shadow layer -->
    <text x="0" y="0" text-anchor="middle"
          font-family="'SF Pro Display', 'Segoe UI', 'Helvetica Neue', Arial, sans-serif"
          font-size="58" font-weight="800" letter-spacing="18"
          fill="#22d3ee" filter="url(#textGlow)" opacity="0.4">
      DUGONG
    </text>
    <!-- Main text -->
    <text x="0" y="0" text-anchor="middle"
          font-family="'SF Pro Display', 'Segoe UI', 'Helvetica Neue', Arial, sans-serif"
          font-size="58" font-weight="800" letter-spacing="18"
          fill="#ecfeff">
      DUGONG
      <animate attributeName="fill" values="#ecfeff;#cffafe;#ecfeff" dur="4s" repeatCount="indefinite"/>
    </text>

    <!-- Decorative line under text -->
    <line x1="-145" y1="14" x2="145" y2="14" stroke="#06b6d4" stroke-width="0.8" opacity="0.3"/>
    <line x1="-80" y1="14" x2="80" y2="14" stroke="#22d3ee" stroke-width="1" opacity="0.5">
      <animate attributeName="opacity" values="0.3;0.6;0.3" dur="3s" repeatCount="indefinite"/>
    </line>

    <!-- Subtitle -->
    <text x="0" y="34" text-anchor="middle"
          font-family="'SF Mono', 'JetBrains Mono', 'Fira Code', monospace"
          font-size="10.5" font-weight="400" letter-spacing="6"
          fill="#06b6d4" opacity="0.55">
      EMBODIED K2 AGENT
      <animate attributeName="opacity" values="0.4;0.65;0.4" dur="4s" repeatCount="indefinite"/>
    </text>
  </g>

  <!-- Corner brackets -->
  <g stroke="#06b6d4" stroke-width="1.5" fill="none" opacity="0.25">
    <path d="M22,22 L22,52 M22,22 L52,22"/>
    <path d="M778,22 L778,52 M778,22 L748,22"/>
    <path d="M22,378 L22,348 M22,378 L52,378"/>
    <path d="M778,378 L778,348 M778,378 L748,378"/>
  </g>
  <!-- Corner dots pulsing -->
  <g fill="#06b6d4">
    <circle cx="22" cy="22" r="2">
      <animate attributeName="opacity" values="0.25;0.8;0.25" dur="2.2s" repeatCount="indefinite"/>
    </circle>
    <circle cx="778" cy="22" r="2">
      <animate attributeName="opacity" values="0.25;0.8;0.25" dur="2.2s" begin="0.55s" repeatCount="indefinite"/>
    </circle>
    <circle cx="22" cy="378" r="2">
      <animate attributeName="opacity" values="0.25;0.8;0.25" dur="2.2s" begin="1.1s" repeatCount="indefinite"/>
    </circle>
    <circle cx="778" cy="378" r="2">
      <animate attributeName="opacity" values="0.25;0.8;0.25" dur="2.2s" begin="1.65s" repeatCount="indefinite"/>
    </circle>
  </g>

  <!-- Hex data streams -->
  <g font-family="'SF Mono', 'JetBrains Mono', monospace" font-size="7.5" fill="#06b6d4" opacity="0.1">
    <text x="14" y="85">0xD7A3</text>
    <text x="14" y="97">0xF18E</text>
    <text x="14" y="109">0xC46B</text>
    <text x="14" y="121">0x2FA9</text>
    <text x="756" y="265">0x9AE5</text>
    <text x="756" y="277">0x71BC</text>
    <text x="756" y="289">0x48D2</text>
    <text x="756" y="301">0x3F67</text>
  </g>

  <!-- Status readout bottom-left -->
  <g font-family="'SF Mono', 'JetBrains Mono', monospace" font-size="7" fill="#0891b2" opacity="0.18">
    <text x="22" y="365">SYS.READY</text>
  </g>
  <!-- Status readout bottom-right -->
  <g font-family="'SF Mono', 'JetBrains Mono', monospace" font-size="7" fill="#0891b2" opacity="0.18" text-anchor="end">
    <text x="778" y="365">K2.ONLINE</text>
  </g>
</svg>
